<?xml version="1.0" standalone="no"?>
<!DOCTYPE svg PUBLIC "-//W3C//DTD SVG 20010904//EN"
 "http://www.w3.org/TR/2001/REC-SVG-20010904/DTD/svg10.dtd">
<svg version="1.0" xmlns="http://www.w3.org/2000/svg"
 width="203.000000pt" height="80.000000pt" viewBox="0 0 203.000000 80.000000"
 preserveAspectRatio="xMidYMid meet">

<g transform="translate(0.000000,80.000000) scale(0.100000,-0.100000)"
fill="#000000" stroke="none">
<path d="M604 420 c0 -190 2 -267 3 -172 2 94 2 250 0 345 -1 94 -3 17 -3
-173z"/>
<path d="M185 558 c-82 -133 -80 -128 -51 -128 19 0 34 16 79 88 41 66 52 91
45 105 -5 9 -12 17 -16 17 -4 0 -29 -37 -57 -82z"/>
<path d="M255 496 c-41 -64 -41 -66 -15 -66 20 0 70 67 70 94 0 35 -22 23 -55
-28z"/>
<path d="M730 495 c0 -39 3 -45 21 -45 33 0 59 19 59 43 0 31 -18 47 -52 47
-27 0 -28 -2 -28 -45z m58 2 c3 -22 -1 -27 -17 -27 -17 0 -21 6 -21 31 0 24 4
30 18 27 10 -2 18 -14 20 -31z"/>
<path d="M822 498 c3 -39 6 -43 31 -46 15 -2 27 1 27 7 0 6 -9 11 -20 11 -11
0 -20 5 -20 10 0 6 7 10 15 10 8 0 15 5 15 10 0 6 -7 10 -15 10 -21 0 -19 18
3 23 10 3 6 5 -11 6 -27 1 -28 -1 -25 -41z"/>
<path d="M890 494 c0 -27 4 -43 10 -39 6 3 10 12 10 20 0 7 8 16 18 18 16 4
16 5 0 6 -10 0 -18 7 -18 15 0 8 8 17 18 19 10 3 6 5 -10 6 -27 1 -28 -1 -28
-45z"/>
<path d="M950 495 c0 -41 2 -45 25 -45 14 0 25 5 25 10 0 6 -7 10 -15 10 -8 0
-15 5 -15 10 0 6 7 10 15 10 8 0 15 5 15 10 0 6 -7 10 -15 10 -21 0 -19 18 3
23 10 3 6 5 -10 6 -27 1 -28 -1 -28 -44z"/>
<path d="M1010 501 c0 -22 5 -43 10 -46 6 -4 10 7 10 27 l0 32 30 -34 29 -35
-1 50 c0 38 -2 43 -7 22 l-6 -29 -24 26 c-33 35 -41 33 -41 -13z"/>
<path d="M1113 524 c-4 -10 1 -22 10 -29 20 -14 22 -27 4 -23 -7 2 -14 -1 -15
-7 -1 -5 8 -10 20 -10 28 0 37 34 14 47 -20 11 -21 29 -1 22 8 -4 15 -1 15 5
0 17 -40 13 -47 -5z"/>
<path d="M1170 501 c0 -22 5 -43 10 -46 6 -4 10 12 10 39 0 25 -4 46 -10 46
-5 0 -10 -18 -10 -39z"/>
<path d="M1217 533 c-13 -12 -7 -60 8 -73 8 -7 25 -10 39 -6 51 13 40 86 -13
86 -15 0 -31 -3 -34 -7z m58 -23 c8 -26 -1 -40 -26 -40 -25 0 -35 25 -19 45
17 21 37 19 45 -5z"/>
<path d="M1348 498 c-18 -41 -15 -68 3 -35 13 22 35 22 48 0 5 -10 12 -16 15
-13 7 7 -31 90 -41 90 -4 0 -16 -19 -25 -42z"/>
<path d="M1420 501 c0 -22 5 -43 10 -46 6 -3 10 4 10 17 l0 23 20 -25 c19 -25
40 -23 24 2 -5 7 -9 24 -9 38 0 20 -6 26 -27 28 -26 3 -28 1 -28 -37z m40 19
c0 -5 -4 -10 -10 -10 -5 0 -10 5 -10 10 0 6 5 10 10 10 6 0 10 -4 10 -10z"/>
<path d="M1500 494 c0 -27 4 -43 10 -39 6 3 10 14 11 23 0 11 4 8 10 -8 l10
-25 19 25 c18 23 20 24 20 5 0 -24 35 -31 44 -9 7 19 33 18 45 -3 5 -10 12
-16 15 -13 7 7 -31 90 -41 90 -4 0 -15 -17 -25 -38 l-16 -37 -1 38 c-1 46 -15
47 -37 5 l-17 -33 -15 33 c-22 44 -32 40 -32 -14z"/>
<path d="M1690 501 c0 -42 20 -69 21 -29 l0 23 16 -23 16 -24 13 24 c10 17 13
19 14 6 0 -9 5 -20 10 -23 6 -4 10 12 10 39 0 54 -10 58 -32 14 l-15 -33 -17
33 c-22 43 -36 40 -36 -7z"/>
<path d="M1810 495 c0 -41 2 -45 25 -45 14 0 25 5 25 10 0 6 -7 10 -15 10 -8
0 -15 5 -15 10 0 6 7 10 15 10 8 0 15 5 15 10 0 6 -7 10 -15 10 -21 0 -19 18
3 23 10 3 6 5 -10 6 -27 1 -28 -1 -28 -44z"/>
<path d="M1870 501 c0 -22 5 -43 10 -46 6 -4 10 7 10 27 l0 32 30 -34 29 -35
1 43 c0 36 3 43 18 40 11 -2 19 -16 23 -43 l6 -40 2 37 c0 24 7 41 19 47 13 8
7 10 -30 11 -46 0 -48 -1 -48 -27 l-1 -28 -24 28 c-33 37 -45 34 -45 -12z"/>
<path d="M323 452 c-17 -26 73 -192 105 -192 12 0 22 3 22 6 0 9 -101 193
-109 198 -4 3 -12 -3 -18 -12z"/>
<path d="M75 378 l-15 -23 71 -3 c71 -3 99 7 99 34 0 11 -17 14 -69 14 -61 0
-72 -3 -86 -22z"/>
<path d="M272 369 c-11 -18 -9 -27 13 -65 20 -34 32 -44 51 -44 l25 0 -32 58
c-42 74 -42 75 -57 51z"/>
<path d="M1093 355 c0 -22 2 -30 4 -17 2 12 2 30 0 40 -3 9 -5 -1 -4 -23z"/>
<path d="M12 280 c-12 -20 -10 -20 118 -20 128 0 130 0 118 20 -12 18 -24 20
-118 20 -94 0 -106 -2 -118 -20z"/>
</g>
</svg>
